# This file uses centimeters as units for non-parametric coordinates.

mtllib rock_C.mtl
g default
v 116.313252 75.387112 -67.153491
v 67.153491 75.387112 -116.313252
v 0.000000 75.387112 -134.306982
v -67.153491 75.387112 -116.313252
v -116.313252 75.387112 -67.153491
v -67.153491 75.387112 116.313252
v 67.153491 75.387112 116.313252
v 116.313252 75.387112 67.153491
v 134.306982 75.387112 0.000000
v 74.899977 112.790473 -129.730579
v -74.899977 112.790473 129.730579
v 112.595279 69.792177 -65.006922
v 63.376949 65.543732 -109.772091
v -108.630858 63.826364 62.718055
v -64.313881 67.985819 111.394904
v 66.900245 74.727043 115.874618
v 116.219955 75.246736 67.099623
v 132.779545 73.396526 0.000000
v 0.000000 66.522349 -127.504805
v -66.286622 73.127681 -114.811800
v -115.419863 74.042710 -66.637690
v -129.294616 68.854879 0.000000
v 21.584706 63.081993 -119.081329
v -113.518849 62.728198 41.331034
v 120.005584 85.680181 69.285256
v 131.559574 102.612617 52.340461
v 68.634432 373.540735 53.113400
v 61.832245 112.790454 -133.232055
v -14.025770 112.790473 -146.041762
v 0.000000 106.137942 -147.044394
v 75.034867 114.839663 -129.964224
v -29.598008 394.286920 -63.772923
v 47.423398 384.847427 -55.550125
v 94.042450 112.790473 -110.588101
v 116.560883 76.077421 -67.296455
v 138.976609 86.660610 0.000000
v 142.204100 106.956605 19.329686
v 128.789750 153.096795 6.003993
v 87.357419 129.756713 -120.324373
v 87.170446 201.042178 -84.232959
v -67.377204 76.467313 -116.700741
v -118.437447 81.308702 -68.379891
v -34.595619 112.790482 -140.530094
v -29.549298 123.412314 -143.280645
v -63.509084 238.380648 -90.756557
v -132.135284 75.387112 -8.104886
v -114.778495 75.387112 68.688240
v -101.683794 112.790473 102.946767
v -92.155728 152.929123 119.693413
v -115.430595 74.058868 66.643893
v -130.932608 70.989556 0.000000
v -44.474125 394.860772 -50.094036
v -17.377545 75.387112 129.650685
v 67.692115 75.387098 115.774619
v -69.252182 112.790473 131.243900
v -75.458558 121.276066 130.698057
v 66.963601 74.892155 115.984351
v -8.729281 71.466885 128.959891
v 64.630831 74.634985 116.412077
v 95.328930 106.248072 105.599768
v 99.870901 138.187325 98.994021
v -85.350019 152.929169 126.499131
v -85.480680 193.067930 119.149881
v -73.189912 230.471254 110.276818
v -63.679400 243.266023 106.376077
v -131.789845 75.387112 -9.394084
v -105.015564 240.573394 -51.794872
v -86.301358 193.067930 118.329212
v -81.343548 230.471254 102.123186
v -131.080674 71.182519 0.000000
v -132.750095 104.521349 -50.848016
v -87.767009 186.091046 118.118279
v -131.234009 72.091670 -2.031252
v -93.760747 286.217296 -40.452272
v -81.102832 237.219282 95.290754
v -25.351985 383.801886 58.446621
v 67.443796 373.404519 56.433643
v 75.626970 272.516178 90.289757
v -61.063979 251.263473 105.704038
vt 0.000000 0.333333
vt 0.083333 0.333333
vt 0.166667 0.333333
vt 0.250000 0.333333
vt 0.333333 0.333333
vt 0.583333 0.333333
vt 0.750000 0.333333
vt 0.833333 0.333333
vt 0.916667 0.333333
vt 1.000000 0.333333
vt 0.083333 0.416667
vt 0.583333 0.416667
vt 1.000000 0.318817
vt 0.000000 0.318817
vt 0.083333 0.307795
vt 0.500000 0.303339
vt 0.583333 0.314131
vt 0.750000 0.331621
vt 0.833333 0.332969
vt 0.916667 0.328169
vt 0.166667 0.310334
vt 0.250000 0.327471
vt 0.333333 0.329845
vt 0.416667 0.316385
vt 0.138285 0.301408
vt 0.471583 0.300490
vt 0.833333 0.356266
vt 0.856088 0.393991
vt 0.757408 0.742353
vt 0.097872 0.416667
vt 0.182272 0.416667
vt 0.166667 0.401845
vt 0.083333 0.420921
vt 0.244009 0.809982
vt 0.230742 0.778584
vt 0.054240 0.416667
vt 1.000000 0.334871
vt 0.000000 0.334871
vt 0.916667 0.358450
vt 0.894294 0.403669
vt 0.885444 0.505441
vt 0.066685 0.451891
vt 0.106020 0.612104
vt 0.250000 0.335740
vt 0.333333 0.346526
vt 0.205158 0.416667
vt 0.198814 0.438719
vt 0.262025 0.697167
vt 0.406609 0.333333
vt 0.502602 0.333333
vt 0.542626 0.416667
vt 0.561880 0.500000
vt 0.500000 0.329887
vt 0.416667 0.321924
vt 0.284993 0.811922
vt 0.645102 0.333333
vt 0.750913 0.333333
vt 0.589617 0.416667
vt 0.583333 0.434284
vt 0.750000 0.332049
vt 0.655356 0.323162
vt 0.747173 0.331382
vt 0.784615 0.402090
vt 0.794722 0.468742
vt 0.571871 0.500000
vt 0.567252 0.583333
vt 0.573101 0.666667
vt 0.580766 0.699863
vt 0.405009 0.333333
vt 0.342659 0.694769
vt 0.566005 0.583333
vt 0.559279 0.666667
vt 0.416667 0.322424
vt 0.358188 0.398243
vt 0.564607 0.568848
vt 0.414146 0.324783
vt 0.345624 0.737391
vt 0.553747 0.684174
vt 0.537569 0.774530
vt 0.756365 0.741989
vt 0.767775 0.623813
vt 0.583197 0.703493
vn 0.656510 -0.371470 -0.656510
vn 0.656510 -0.371471 -0.656510
vn 0.656510 -0.371470 -0.656510
vn 0.656510 -0.371470 -0.656510
vn 0.656510 -0.371470 -0.656510
vn 0.240299 -0.371470 -0.896809
vn 0.240299 -0.371470 -0.896809
vn 0.240299 -0.371470 -0.896809
vn 0.240299 -0.371470 -0.896809
vn 0.240299 -0.371470 -0.896809
vn -0.240299 -0.371470 -0.896809
vn -0.240299 -0.371470 -0.896809
vn -0.240299 -0.371470 -0.896809
vn -0.240299 -0.371470 -0.896809
vn -0.240299 -0.371470 -0.896809
vn -0.240299 -0.371470 -0.896809
vn -0.656510 -0.371471 -0.656509
vn -0.656510 -0.371471 -0.656509
vn -0.656510 -0.371471 -0.656509
vn -0.656510 -0.371471 -0.656509
vn -0.896809 -0.371471 -0.240299
vn -0.896809 -0.371471 -0.240299
vn -0.896809 -0.371471 -0.240299
vn -0.896809 -0.371471 -0.240299
vn -0.240299 -0.371471 0.896809
vn -0.240299 -0.371471 0.896809
vn -0.240299 -0.371471 0.896809
vn -0.240299 -0.371471 0.896809
vn 0.896809 -0.371470 0.240299
vn 0.896809 -0.371470 0.240299
vn 0.896809 -0.371470 0.240299
vn 0.896809 -0.371470 0.240299
vn 0.896809 -0.371470 0.240299
vn 0.896809 -0.371470 0.240299
vn 0.896809 -0.371469 -0.240299
vn 0.896809 -0.371469 -0.240299
vn 0.896809 -0.371469 -0.240299
vn 0.896809 -0.371469 -0.240299
vn 0.256749 -0.126155 -0.958209
vn 0.256749 -0.126155 -0.958209
vn 0.256749 -0.126155 -0.958209
vn -0.256752 -0.126150 0.958209
vn -0.256752 -0.126150 0.958209
vn -0.256752 -0.126150 0.958209
vn 0.568081 -0.595455 -0.568082
vn 0.568081 -0.595455 -0.568082
vn 0.568081 -0.595455 -0.568082
vn 0.568081 -0.595455 -0.568082
vn 0.207932 -0.595456 -0.776013
vn 0.207932 -0.595456 -0.776013
vn 0.207932 -0.595456 -0.776013
vn 0.207932 -0.595456 -0.776013
vn 0.207932 -0.595456 -0.776013
vn -0.568081 -0.595456 0.568081
vn -0.568081 -0.595456 0.568081
vn -0.568081 -0.595456 0.568081
vn -0.568081 -0.595456 0.568081
vn -0.568081 -0.595456 0.568081
vn -0.207932 -0.595456 0.776013
vn -0.207932 -0.595456 0.776013
vn -0.207932 -0.595456 0.776013
vn -0.207932 -0.595456 0.776013
vn 0.568075 -0.595470 0.568072
vn 0.568075 -0.595470 0.568072
vn 0.568075 -0.595470 0.568072
vn 0.568075 -0.595470 0.568072
vn 0.568075 -0.595470 0.568072
vn 0.776009 -0.595462 0.207931
vn 0.776009 -0.595462 0.207931
vn 0.776009 -0.595462 0.207931
vn 0.776009 -0.595462 0.207931
vn 0.776012 -0.595457 -0.207932
vn 0.776012 -0.595457 -0.207932
vn 0.776012 -0.595457 -0.207932
vn 0.776012 -0.595457 -0.207932
vn 0.049911 -0.997959 0.039835
vn 0.049911 -0.997959 0.039835
vn 0.049911 -0.997959 0.039835
vn 0.049911 -0.997959 0.039835
vn 0.049911 -0.997959 0.039835
vn 0.049911 -0.997959 0.039835
vn 0.049911 -0.997959 0.039835
vn 0.049911 -0.997959 0.039835
vn 0.049911 -0.997959 0.039835
vn 0.049911 -0.997959 0.039835
vn 0.049911 -0.997959 0.039835
vn -0.207932 -0.595456 -0.776013
vn -0.207932 -0.595456 -0.776013
vn -0.207932 -0.595456 -0.776013
vn -0.207932 -0.595456 -0.776013
vn -0.568080 -0.595459 -0.568079
vn -0.568080 -0.595459 -0.568079
vn -0.568080 -0.595459 -0.568079
vn -0.568080 -0.595459 -0.568079
vn -0.776013 -0.595456 -0.207932
vn -0.776013 -0.595456 -0.207932
vn -0.776013 -0.595456 -0.207932
vn -0.776013 -0.595456 -0.207932
vn -0.776013 -0.595456 -0.207932
vn -0.776013 -0.595456 -0.207932
vn -0.776014 -0.595455 0.207933
vn -0.776014 -0.595455 0.207933
vn -0.776014 -0.595455 0.207933
vn -0.776014 -0.595455 0.207933
vn -0.776014 -0.595455 0.207933
vn 0.920848 0.216682 0.324172
vn 0.920848 0.216682 0.324172
vn 0.920848 0.216682 0.324172
vn 0.920848 0.216682 0.324172
vn 0.920848 0.216682 0.324172
vn 0.920848 0.216682 0.324172
vn 0.920848 0.216682 0.324172
vn -0.117861 -0.987835 -0.101444
vn -0.117861 -0.987835 -0.101444
vn -0.117861 -0.987835 -0.101444
vn -0.117861 -0.987835 -0.101444
vn -0.117861 -0.987835 -0.101444
vn -0.117861 -0.987835 -0.101444
vn -0.676486 0.273590 -0.683750
vn -0.676486 0.273590 -0.683750
vn -0.676487 0.273591 -0.683750
vn -0.676486 0.273591 -0.683750
vn -0.676486 0.273591 -0.683750
vn 0.121492 0.292360 -0.948560
vn 0.121492 0.292360 -0.948560
vn 0.121492 0.292360 -0.948560
vn 0.121492 0.292360 -0.948560
vn 0.121492 0.292360 -0.948560
vn 0.121492 0.292360 -0.948560
vn 0.121492 0.292360 -0.948560
vn 0.121492 0.292360 -0.948560
vn 0.121492 0.292360 -0.948560
vn 0.121492 0.292360 -0.948560
vn 0.701458 -0.126152 -0.701457
vn 0.701458 -0.126152 -0.701457
vn 0.701458 -0.126152 -0.701458
vn 0.701458 -0.126152 -0.701458
vn 0.937888 0.272129 -0.215201
vn 0.937888 0.272129 -0.215201
vn 0.937888 0.272129 -0.215201
vn 0.937888 0.272129 -0.215201
vn 0.926114 0.172331 -0.335580
vn 0.926114 0.172331 -0.335580
vn 0.926114 0.172331 -0.335580
vn 0.926114 0.172331 -0.335580
vn 0.926114 0.172331 -0.335580
vn 0.926114 0.172331 -0.335580
vn 0.926114 0.172331 -0.335580
vn -0.256751 -0.126151 -0.958209
vn -0.256751 -0.126151 -0.958209
vn -0.256751 -0.126151 -0.958209
vn -0.674641 0.132474 -0.726161
vn -0.674641 0.132474 -0.726161
vn -0.674641 0.132474 -0.726161
vn -0.674641 0.132474 -0.726161
vn -0.674641 0.132474 -0.726161
vn -0.674641 0.132474 -0.726161
vn -0.674641 0.132474 -0.726161
vn -0.656510 -0.371471 0.656510
vn -0.656510 -0.371471 0.656510
vn -0.656510 -0.371471 0.656509
vn -0.656510 -0.371471 0.656509
vn -0.701458 -0.126151 0.701458
vn -0.701458 -0.126151 0.701458
vn -0.701458 -0.126151 0.701458
vn -0.701458 -0.126151 0.701458
vn -0.701458 -0.126151 0.701458
vn 0.656509 -0.371471 0.656510
vn 0.656509 -0.371471 0.656510
vn 0.656509 -0.371471 0.656510
vn 0.656509 -0.371471 0.656510
vn 0.207911 -0.595458 0.776017
vn 0.207911 -0.595458 0.776017
vn 0.207911 -0.595458 0.776017
vn 0.568110 -0.595435 0.568074
vn 0.826783 -0.001232 0.562519
vn 0.826783 -0.001232 0.562519
vn 0.826783 -0.001232 0.562519
vn 0.826783 -0.001232 0.562519
vn -0.568082 0.595453 0.568083
vn -0.568082 0.595453 0.568083
vn -0.568082 0.595453 0.568083
vn -0.568082 0.595453 0.568083
vn -0.874654 0.409111 0.260018
vn -0.874654 0.409111 0.260018
vn -0.874653 0.409111 0.260018
vn -0.874654 0.409111 0.260018
vn -0.874653 0.409111 0.260018
vn -0.874653 0.409111 0.260018
vn 0.138209 0.145566 0.979647
vn 0.138209 0.145566 0.979647
vn 0.138209 0.145566 0.979647
vn 0.138209 0.145566 0.979647
vn 0.138209 0.145566 0.979647
vn 0.138209 0.145566 0.979647
vn 0.138209 0.145566 0.979647
vn 0.138209 0.145566 0.979647
vn 0.138209 0.145566 0.979647
vn 0.138209 0.145566 0.979647
vn 0.138209 0.145566 0.979647
vn 0.138209 0.145566 0.979647
vn 0.138209 0.145566 0.979647
vn 0.138209 0.145566 0.979647
vn 0.138209 0.145566 0.979647
vn 0.138209 0.145566 0.979647
vn -0.776031 -0.595431 -0.207937
vn -0.701459 0.126151 0.701456
vn -0.701459 0.126151 0.701456
vn -0.701459 0.126151 0.701456
vn -0.701459 0.126151 0.701456
vn -0.701459 0.126151 0.701456
vn -0.656508 0.371471 0.656510
vn -0.656508 0.371471 0.656510
vn -0.656508 0.371471 0.656510
vn -0.656508 0.371471 0.656510
vn -0.775996 -0.595482 -0.207923
vn -0.965887 0.136204 0.220252
vn -0.965887 0.136204 0.220252
vn -0.965887 0.136204 0.220252
vn -0.965887 0.136204 0.220252
vn -0.965887 0.136204 0.220252
vn -0.965887 0.136204 0.220252
vn -0.965887 0.136204 0.220252
vn -0.966712 0.198276 0.161722
vn -0.966712 0.198276 0.161722
vn -0.966712 0.198276 0.161722
vn -0.966712 0.198276 0.161722
vn -0.966712 0.198276 0.161722
vn -0.966712 0.198276 0.161722
vn -0.966712 0.198276 0.161722
vn -0.966712 0.198276 0.161722
vn -0.966712 0.198276 0.161722
vn -0.966712 0.198276 0.161722
vn -0.966712 0.198276 0.161722
vn 0.112718 0.990316 0.081042
vn 0.112718 0.990317 0.081042
vn 0.112718 0.990317 0.081042
vn 0.112718 0.990316 0.081042
vn 0.112718 0.990316 0.081042
vn 0.112718 0.990316 0.081042
vn 0.056554 0.321755 0.945132
vn 0.056554 0.321755 0.945133
vn 0.056554 0.321755 0.945133
vn 0.056554 0.321755 0.945132
s off
g pSphere4
usemtl initialShadingGroup
f 1/1/1 2/2/2 10/11/3 34/36/4 35/38/5
f 2/2/6 3/3/7 30/32/8 28/30/9 10/11/10
f 3/3/11 4/4/12 41/44/13 43/46/14 29/31/15 30/32/16
f 4/4/17 5/5/18 42/45/19 41/44/20
f 5/5/21 66/69/22 71/74/23 42/45/24
f 6/6/25 53/56/26 55/58/27 11/12/28
f 8/8/29 9/9/30 36/39/31 37/40/32 26/28/33 25/27/34
f 9/9/35 1/10/36 35/37/37 36/39/38
f 10/11/39 28/30/40 31/33/41
f 11/12/42 55/58/43 56/59/44
f 12/14/45 13/15/46 2/2/47 1/1/48
f 13/15/49 23/25/50 19/21/51 3/3/52 2/2/53
f 14/16/54 15/17/55 6/6/56 47/50/57 50/53/58
f 15/17/59 58/61/60 53/56/61 6/6/62
s 1
f 16/18/63 17/19/64 8/8/65 54/57/66 57/60/67
s off
f 17/19/68 18/20/69 9/9/70 8/8/71
f 18/20/72 12/13/73 1/10/74 9/9/75
f 12/13/76 18/20/77 17/19/78 16/18/79 59/62/80 58/61/81 15/17/82 14/16/83 24/26/84 23/25/85 13/15/86
f 19/21/87 20/22/88 4/4/89 3/3/90
f 20/22/91 21/23/92 5/5/93 4/4/94
s 2
f 21/23/95 22/24/96 51/54/97 73/76/98 66/69/99 5/5/100
s off
f 22/24/101 24/26/102 14/16/103 50/53/104 51/54/105
f 26/28/106 37/40/107 38/41/108 27/29/109 77/80/110 78/81/111 61/64/112
f 19/21/113 23/25/114 24/26/115 22/24/116 21/23/117 20/22/118
f 32/34/119 45/48/120 67/70/121 74/77/122 52/55/123
f 28/30/124 30/32/125 29/31/126 44/47/127 45/48/128 32/34/129 33/35/130 40/43/131 39/42/132 31/33/133
f 39/42/134 34/36/135 10/11/136 31/33/137
f 38/41/138 40/43/139 33/35/140 27/29/141
f 35/38/142 34/36/143 39/42/144 40/43/145 38/41/146 37/40/147 36/39/148
f 43/46/149 44/47/150 29/31/151
f 43/46/152 41/44/153 42/45/154 71/74/155 67/70/156 45/48/157 44/47/158
f 48/51/159 47/50/160 6/6/161 11/12/162
f 49/52/163 48/51/164 11/12/165 56/59/166 62/65/167
f 60/63/168 54/57/169 8/8/170 25/27/171
f 57/60/172 59/62/173 16/18/174
s 1
f 57/60/67 54/57/66 7/7/175
s off
f 61/64/176 60/63/177 25/27/178 26/28/179
f 64/67/180 65/68/181 75/78/182 69/72/183
f 65/68/184 79/82/185 76/79/186 52/55/187 74/77/188 75/78/189
f 54/57/190 60/63/191 61/64/192 78/81/193 79/82/194 65/68/195 64/67/196 63/66/197 62/65/198 56/59/199 55/58/200 53/56/201 58/61/202 59/62/203 57/60/204 7/7/205
s 2
f 66/69/99 73/76/98 46/49/206
s off
f 68/71/207 72/75/208 49/52/209 62/65/210 63/66/211
f 69/72/212 68/71/213 63/66/214 64/67/215
s 2
f 70/73/216 73/76/98 51/54/97
s off
f 72/75/217 70/73/218 51/54/219 50/53/220 47/50/221 48/51/222 49/52/223
f 46/49/224 73/76/225 70/73/226 72/75/227 68/71/228 69/72/229 75/78/230 74/77/231 67/70/232 71/74/233 66/69/234
f 76/79/235 77/80/236 27/29/237 33/35/238 32/34/239 52/55/240
f 78/81/241 77/80/242 76/79/243 79/82/244
